<?xml version="1.0" encoding="UTF-8" standalone="no"?><svg xmlns="http://www.w3.org/2000/svg" xmlns:xlink="http://www.w3.org/1999/xlink" contentStyleType="text/css" height="496px" preserveAspectRatio="none" style="width:1109px;height:496px;background:#FFFFFF;" version="1.1" viewBox="0 0 1109 496" width="1109px" zoomAndPan="magnify"><defs/><g><!--MD5=[d028a7a7f34f78ee6cff7c9b9b5357e6]
class Merchant--><g id="elem_Merchant"><rect codeLine="1" fill="#F1F1F1" height="227.2656" id="Merchant" rx="2.5" ry="2.5" style="stroke:#181818;stroke-width:0.5;" width="169" x="7" y="262"/><ellipse cx="54.75" cy="278" fill="#ADD1B2" rx="11" ry="11" style="stroke:#181818;stroke-width:1.0;"/><path d="M58.8594,284 L51.1406,284 L51.1406,271.6094 L58.8594,271.6094 L58.8594,273.7656 L53.5938,273.7656 L53.5938,276.4375 L58.3594,276.4375 L58.3594,278.5938 L53.5938,278.5938 L53.5938,281.8438 L58.8594,281.8438 L58.8594,284 Z " fill="#000000"/><text fill="#000000" font-family="sans-serif" font-size="14" lengthAdjust="spacing" textLength="65" x="75.25" y="282.8467">Merchant</text><line style="stroke:#181818;stroke-width:0.5;" x1="8" x2="175" y1="294" y2="294"/><text fill="#000000" font-family="sans-serif" font-size="14" lengthAdjust="spacing" textLength="79" x="13" y="310.9951">Long     mid</text><text fill="#000000" font-family="sans-serif" font-size="14" lengthAdjust="spacing" textLength="86" x="13" y="327.292">String   desc</text><text fill="#000000" font-family="sans-serif" font-size="14" lengthAdjust="spacing" textLength="110" x="13" y="343.5889">geometry geom</text><text fill="#000000" font-family="sans-serif" font-size="14" lengthAdjust="spacing" textLength="133" x="13" y="359.8857">String   geom_desc</text><text fill="#000000" font-family="sans-serif" font-size="14" lengthAdjust="spacing" textLength="147" x="13" y="376.1826">String   Integerro_img</text><text fill="#000000" font-family="sans-serif" font-size="14" lengthAdjust="spacing" textLength="91" x="13" y="392.4795">String   name</text><text fill="#000000" font-family="sans-serif" font-size="14" lengthAdjust="spacing" textLength="97" x="13" y="408.7764">Long     owner</text><text fill="#000000" font-family="sans-serif" font-size="14" lengthAdjust="spacing" textLength="97" x="13" y="425.0732">String   phone</text><text fill="#000000" font-family="sans-serif" font-size="14" lengthAdjust="spacing" textLength="84" x="13" y="441.3701">float    score</text><text fill="#000000" font-family="sans-serif" font-size="14" lengthAdjust="spacing" textLength="152" x="13" y="457.667">DateTime create_time</text><text fill="#000000" font-family="sans-serif" font-size="14" lengthAdjust="spacing" textLength="157" x="13" y="473.9639">DateTime update_time</text><line style="stroke:#181818;stroke-width:0.5;" x1="8" x2="175" y1="481.2656" y2="481.2656"/></g><!--MD5=[3fd616f346a44cd59a91eb10b19e157c]
class User--><g id="elem_User"><rect codeLine="14" fill="#F1F1F1" height="178.375" id="User" rx="2.5" ry="2.5" style="stroke:#181818;stroke-width:0.5;" width="155" x="128" y="7"/><ellipse cx="185.25" cy="23" fill="#ADD1B2" rx="11" ry="11" style="stroke:#181818;stroke-width:1.0;"/><path d="M189.3594,29 L181.6406,29 L181.6406,16.6094 L189.3594,16.6094 L189.3594,18.7656 L184.0938,18.7656 L184.0938,21.4375 L188.8594,21.4375 L188.8594,23.5938 L184.0938,23.5938 L184.0938,26.8438 L189.3594,26.8438 L189.3594,29 Z " fill="#000000"/><text fill="#000000" font-family="sans-serif" font-size="14" lengthAdjust="spacing" textLength="32" x="205.75" y="27.8467">User</text><line style="stroke:#181818;stroke-width:0.5;" x1="129" x2="282" y1="39" y2="39"/><text fill="#000000" font-family="sans-serif" font-size="14" lengthAdjust="spacing" textLength="88" x="134" y="55.9951">user_id Long</text><text fill="#000000" font-family="sans-serif" font-size="14" lengthAdjust="spacing" textLength="89" x="134" y="72.292">dept_id Long</text><text fill="#000000" font-family="sans-serif" font-size="14" lengthAdjust="spacing" textLength="121" x="134" y="88.5889">user_name String</text><text fill="#000000" font-family="sans-serif" font-size="14" lengthAdjust="spacing" textLength="112" x="134" y="104.8857">user_type enum</text><text fill="#000000" font-family="sans-serif" font-size="14" lengthAdjust="spacing" textLength="80" x="134" y="121.1826">email String</text><text fill="#000000" font-family="sans-serif" font-size="14" lengthAdjust="spacing" textLength="143" x="134" y="137.4795">phonenumber String</text><text fill="#000000" font-family="sans-serif" font-size="14" lengthAdjust="spacing" textLength="85" x="134" y="153.7764">avatar String</text><text fill="#000000" font-family="sans-serif" font-size="14" lengthAdjust="spacing" textLength="111" x="134" y="170.0732">password String</text><line style="stroke:#181818;stroke-width:0.5;" x1="129" x2="282" y1="177.375" y2="177.375"/></g><!--MD5=[a96594a83e2ecdc78cbf17c2ddf01934]
class Category--><g id="elem_Category"><rect codeLine="25" fill="#F1F1F1" height="113.1875" id="Category" rx="2.5" ry="2.5" style="stroke:#181818;stroke-width:0.5;" width="111" x="272" y="319"/><ellipse cx="294.65" cy="335" fill="#ADD1B2" rx="11" ry="11" style="stroke:#181818;stroke-width:1.0;"/><path d="M298.7594,341 L291.0406,341 L291.0406,328.6094 L298.7594,328.6094 L298.7594,330.7656 L293.4938,330.7656 L293.4938,333.4375 L298.2594,333.4375 L298.2594,335.5938 L293.4938,335.5938 L293.4938,338.8438 L298.7594,338.8438 L298.7594,341 Z " fill="#000000"/><text fill="#000000" font-family="sans-serif" font-size="14" lengthAdjust="spacing" textLength="62" x="310.35" y="339.8467">Category</text><line style="stroke:#181818;stroke-width:0.5;" x1="273" x2="382" y1="351" y2="351"/><text fill="#000000" font-family="sans-serif" font-size="14" lengthAdjust="spacing" textLength="90" x="278" y="367.9951">Long    cat_id</text><text fill="#000000" font-family="sans-serif" font-size="14" lengthAdjust="spacing" textLength="75" x="278" y="384.292">Long    mid</text><text fill="#000000" font-family="sans-serif" font-size="14" lengthAdjust="spacing" textLength="87" x="278" y="400.5889">String  name</text><text fill="#000000" font-family="sans-serif" font-size="14" lengthAdjust="spacing" textLength="99" x="278" y="416.8857">Integer priority</text><line style="stroke:#181818;stroke-width:0.5;" x1="273" x2="382" y1="424.1875" y2="424.1875"/></g><!--MD5=[7269d54c6485137c372051b2c6b50d6f]
class Commodity--><g id="elem_Commodity"><rect codeLine="32" fill="#F1F1F1" height="194.6719" id="Commodity" rx="2.5" ry="2.5" style="stroke:#181818;stroke-width:0.5;" width="169" x="479" y="278"/><ellipse cx="520.55" cy="294" fill="#ADD1B2" rx="11" ry="11" style="stroke:#181818;stroke-width:1.0;"/><path d="M524.6594,300 L516.9406,300 L516.9406,287.6094 L524.6594,287.6094 L524.6594,289.7656 L519.3938,289.7656 L519.3938,292.4375 L524.1594,292.4375 L524.1594,294.5938 L519.3938,294.5938 L519.3938,297.8438 L524.6594,297.8438 L524.6594,300 Z " fill="#000000"/><text fill="#000000" font-family="sans-serif" font-size="14" lengthAdjust="spacing" textLength="78" x="540.45" y="298.8467">Commodity</text><line style="stroke:#181818;stroke-width:0.5;" x1="480" x2="647" y1="310" y2="310"/><text fill="#000000" font-family="sans-serif" font-size="14" lengthAdjust="spacing" textLength="74" x="485" y="326.9951">Long     cid</text><text fill="#000000" font-family="sans-serif" font-size="14" lengthAdjust="spacing" textLength="96" x="485" y="343.292">varcha   name</text><text fill="#000000" font-family="sans-serif" font-size="14" lengthAdjust="spacing" textLength="94" x="485" y="359.5889">Long     cat_id</text><text fill="#000000" font-family="sans-serif" font-size="14" lengthAdjust="spacing" textLength="82" x="485" y="375.8857">varcha   img</text><text fill="#000000" font-family="sans-serif" font-size="14" lengthAdjust="spacing" textLength="91" x="485" y="392.1826">varcha   desc</text><text fill="#000000" font-family="sans-serif" font-size="14" lengthAdjust="spacing" textLength="79" x="485" y="408.4795">Long     mid</text><text fill="#000000" font-family="sans-serif" font-size="14" lengthAdjust="spacing" textLength="152" x="485" y="424.7764">DateTime create_time</text><text fill="#000000" font-family="sans-serif" font-size="14" lengthAdjust="spacing" textLength="157" x="485" y="441.0732">DateTime update_time</text><text fill="#000000" font-family="sans-serif" font-size="14" lengthAdjust="spacing" textLength="90" x="485" y="457.3701">enum     type</text><line style="stroke:#181818;stroke-width:0.5;" x1="480" x2="647" y1="464.6719" y2="464.6719"/></g><!--MD5=[cf4d6237fcae255cd2e1656cf84a30e2]
class Order--><g id="elem_Order"><rect codeLine="44" fill="#F1F1F1" height="162.0781" id="Order" rx="2.5" ry="2.5" style="stroke:#181818;stroke-width:0.5;" width="169" x="399" y="15"/><ellipse cx="459.75" cy="31" fill="#ADD1B2" rx="11" ry="11" style="stroke:#181818;stroke-width:1.0;"/><path d="M463.8594,37 L456.1406,37 L456.1406,24.6094 L463.8594,24.6094 L463.8594,26.7656 L458.5938,26.7656 L458.5938,29.4375 L463.3594,29.4375 L463.3594,31.5938 L458.5938,31.5938 L458.5938,34.8438 L463.8594,34.8438 L463.8594,37 Z " fill="#000000"/><text fill="#000000" font-family="sans-serif" font-size="14" lengthAdjust="spacing" textLength="39" x="480.25" y="35.8467">Order</text><line style="stroke:#181818;stroke-width:0.5;" x1="400" x2="567" y1="47" y2="47"/><text fill="#000000" font-family="sans-serif" font-size="14" lengthAdjust="spacing" textLength="75" x="405" y="63.9951">Long     oid</text><text fill="#000000" font-family="sans-serif" font-size="14" lengthAdjust="spacing" textLength="75" x="405" y="80.292">Long     uid</text><text fill="#000000" font-family="sans-serif" font-size="14" lengthAdjust="spacing" textLength="79" x="405" y="96.5889">Long     mid</text><text fill="#000000" font-family="sans-serif" font-size="14" lengthAdjust="spacing" textLength="147" x="405" y="112.8857">Integer  total_amount</text><text fill="#000000" font-family="sans-serif" font-size="14" lengthAdjust="spacing" textLength="103" x="405" y="129.1826">Enum     status</text><text fill="#000000" font-family="sans-serif" font-size="14" lengthAdjust="spacing" textLength="152" x="405" y="145.4795">DateTime create_time</text><text fill="#000000" font-family="sans-serif" font-size="14" lengthAdjust="spacing" textLength="157" x="405" y="161.7764">DateTime update_time</text><line style="stroke:#181818;stroke-width:0.5;" x1="400" x2="567" y1="169.0781" y2="169.0781"/></g><!--MD5=[003718b22fee2486eeba0fa029a176b7]
class OrderItem--><g id="elem_OrderItem"><rect codeLine="54" fill="#F1F1F1" height="129.4844" id="OrderItem" rx="2.5" ry="2.5" style="stroke:#181818;stroke-width:0.5;" width="240" x="674.5" y="31.5"/><ellipse cx="755.75" cy="47.5" fill="#ADD1B2" rx="11" ry="11" style="stroke:#181818;stroke-width:1.0;"/><path d="M759.8594,53.5 L752.1406,53.5 L752.1406,41.1094 L759.8594,41.1094 L759.8594,43.2656 L754.5938,43.2656 L754.5938,45.9375 L759.3594,45.9375 L759.3594,48.0938 L754.5938,48.0938 L754.5938,51.3438 L759.8594,51.3438 L759.8594,53.5 Z " fill="#000000"/><text fill="#000000" font-family="sans-serif" font-size="14" lengthAdjust="spacing" textLength="69" x="776.25" y="52.3467">OrderItem</text><line style="stroke:#181818;stroke-width:0.5;" x1="675.5" x2="913.5" y1="63.5" y2="63.5"/><text fill="#000000" font-family="sans-serif" font-size="14" lengthAdjust="spacing" textLength="78" x="680.5" y="80.4951">Long     oiid</text><text fill="#000000" font-family="sans-serif" font-size="14" lengthAdjust="spacing" textLength="75" x="680.5" y="96.792">Long     oid</text><text fill="#000000" font-family="sans-serif" font-size="14" lengthAdjust="spacing" textLength="74" x="680.5" y="113.0889">Long     sid</text><text fill="#000000" font-family="sans-serif" font-size="14" lengthAdjust="spacing" textLength="97" x="680.5" y="129.3857">Integer  count</text><text fill="#000000" font-family="sans-serif" font-size="14" lengthAdjust="spacing" textLength="228" x="680.5" y="145.6826">DateTime appoIntegerment_time</text><line style="stroke:#181818;stroke-width:0.5;" x1="675.5" x2="913.5" y1="152.9844" y2="152.9844"/></g><!--MD5=[bf355ee04fde5e9ef93f670a76a73a8a]
class Specification--><g id="elem_Specification"><rect codeLine="63" fill="#F1F1F1" height="96.8906" id="Specification" rx="2.5" ry="2.5" style="stroke:#181818;stroke-width:0.5;" width="119" x="745" y="327"/><ellipse cx="760" cy="343" fill="#ADD1B2" rx="11" ry="11" style="stroke:#181818;stroke-width:1.0;"/><path d="M764.1094,349 L756.3906,349 L756.3906,336.6094 L764.1094,336.6094 L764.1094,338.7656 L758.8438,338.7656 L758.8438,341.4375 L763.6094,341.4375 L763.6094,343.5938 L758.8438,343.5938 L758.8438,346.8438 L764.1094,346.8438 L764.1094,349 Z " fill="#000000"/><text fill="#000000" font-family="sans-serif" font-size="14" lengthAdjust="spacing" textLength="87" x="774" y="347.8467">Specification</text><line style="stroke:#181818;stroke-width:0.5;" x1="746" x2="863" y1="359" y2="359"/><text fill="#000000" font-family="sans-serif" font-size="14" lengthAdjust="spacing" textLength="70" x="751" y="375.9951">Long    sid</text><text fill="#000000" font-family="sans-serif" font-size="14" lengthAdjust="spacing" textLength="70" x="751" y="392.292">Long    cid</text><text fill="#000000" font-family="sans-serif" font-size="14" lengthAdjust="spacing" textLength="87" x="751" y="408.5889">Integer price</text><line style="stroke:#181818;stroke-width:0.5;" x1="746" x2="863" y1="415.8906" y2="415.8906"/></g><!--MD5=[520f1b24d97edf074fa9680f5f501b79]
class SpecificationAtb--><g id="elem_SpecificationAtb"><rect codeLine="69" fill="#F1F1F1" height="113.1875" id="SpecificationAtb" rx="2.5" ry="2.5" style="stroke:#181818;stroke-width:0.5;" width="142" x="960.5" y="319"/><ellipse cx="975.5" cy="335" fill="#ADD1B2" rx="11" ry="11" style="stroke:#181818;stroke-width:1.0;"/><path d="M979.6094,341 L971.8906,341 L971.8906,328.6094 L979.6094,328.6094 L979.6094,330.7656 L974.3438,330.7656 L974.3438,333.4375 L979.1094,333.4375 L979.1094,335.5938 L974.3438,335.5938 L974.3438,338.8438 L979.6094,338.8438 L979.6094,341 Z " fill="#000000"/><text fill="#000000" font-family="sans-serif" font-size="14" lengthAdjust="spacing" textLength="110" x="989.5" y="339.8467">SpecificationAtb</text><line style="stroke:#181818;stroke-width:0.5;" x1="961.5" x2="1101.5" y1="351" y2="351"/><text fill="#000000" font-family="sans-serif" font-size="14" lengthAdjust="spacing" textLength="66" x="966.5" y="367.9951">Long   aid</text><text fill="#000000" font-family="sans-serif" font-size="14" lengthAdjust="spacing" textLength="73" x="966.5" y="384.292">varcha key</text><text fill="#000000" font-family="sans-serif" font-size="14" lengthAdjust="spacing" textLength="85" x="966.5" y="400.5889">varcha value</text><text fill="#000000" font-family="sans-serif" font-size="14" lengthAdjust="spacing" textLength="66" x="966.5" y="416.8857">Long   sid</text><line style="stroke:#181818;stroke-width:0.5;" x1="961.5" x2="1101.5" y1="424.1875" y2="424.1875"/></g><!--MD5=[fcdef4b377affcb245b9460c57f047e2]
link User to Merchant--><g id="link_User_Merchant"><path codeLine="76" d="M166.2,192.65 C158.08,212.44 149.41,233.53 140.97,254.07 " fill="none" id="User-Merchant" style="stroke:#181818;stroke-width:1.0;"/><line style="stroke:#181818;stroke-width:1.0;" x1="140.9102" x2="143.4329" y1="254.2061" y2="263.8826"/><line style="stroke:#181818;stroke-width:1.0;" x1="140.9102" x2="132.3271" y1="254.2061" y2="259.3374"/><line style="stroke:#181818;stroke-width:1.0;" x1="140.9102" x2="137.88" y1="254.2061" y2="261.61"/><ellipse cx="143.1828" cy="248.6531" fill="none" rx="4" ry="4" style="stroke:#181818;stroke-width:1.0;"/><line style="stroke:#181818;stroke-width:1.0;" x1="164.0493" x2="171.4482" y1="187.3582" y2="190.4007"/><line style="stroke:#181818;stroke-width:1.0;" x1="162.9084" x2="170.3073" y1="190.1328" y2="193.1752"/><line style="stroke:#181818;stroke-width:1.0;" x1="166.2276" x2="169.27" y1="192.5789" y2="185.18"/><text fill="#000000" font-family="sans-serif" font-size="13" lengthAdjust="spacing" textLength="60" x="156.5" y="228.0669">container</text></g><!--MD5=[5b2a2bdb39cc116e4a78ea074bb38160]
link User to Order--><g id="link_User_Order"><path codeLine="77" d="M291.43,96 C322.94,96 358.74,96 390.82,96 " fill="none" id="User-Order" style="stroke:#181818;stroke-width:1.0;"/><line style="stroke:#181818;stroke-width:1.0;" x1="390.89" x2="398.89" y1="96" y2="90"/><line style="stroke:#181818;stroke-width:1.0;" x1="390.89" x2="398.89" y1="96" y2="102"/><line style="stroke:#181818;stroke-width:1.0;" x1="390.89" x2="398.89" y1="96" y2="96"/><ellipse cx="384.89" cy="96" fill="none" rx="4" ry="4" style="stroke:#181818;stroke-width:1.0;"/><line style="stroke:#181818;stroke-width:1.0;" x1="287.31" x2="287.31" y1="100" y2="92"/><line style="stroke:#181818;stroke-width:1.0;" x1="290.31" x2="290.31" y1="100" y2="92"/><line style="stroke:#181818;stroke-width:1.0;" x1="291.31" x2="283.31" y1="96" y2="96"/><text fill="#000000" font-family="sans-serif" font-size="13" lengthAdjust="spacing" textLength="60" x="311" y="89.0669">container</text></g><!--MD5=[a42ad3ca7da75fb048bce142ac275251]
link Merchant to Category--><g id="link_Merchant_Category"><path codeLine="78" d="M184.32,375.5 C210.94,375.5 239.35,375.5 263.78,375.5 " fill="none" id="Merchant-Category" style="stroke:#181818;stroke-width:1.0;"/><line style="stroke:#181818;stroke-width:1.0;" x1="263.91" x2="271.91" y1="375.5" y2="369.5"/><line style="stroke:#181818;stroke-width:1.0;" x1="263.91" x2="271.91" y1="375.5" y2="381.5"/><line style="stroke:#181818;stroke-width:1.0;" x1="263.91" x2="271.91" y1="375.5" y2="375.5"/><ellipse cx="257.91" cy="375.5" fill="none" rx="4" ry="4" style="stroke:#181818;stroke-width:1.0;"/><line style="stroke:#181818;stroke-width:1.0;" x1="180.03" x2="180.03" y1="379.5" y2="371.5"/><line style="stroke:#181818;stroke-width:1.0;" x1="183.03" x2="183.03" y1="379.5" y2="371.5"/><line style="stroke:#181818;stroke-width:1.0;" x1="184.03" x2="176.03" y1="375.5" y2="375.5"/><text fill="#000000" font-family="sans-serif" font-size="13" lengthAdjust="spacing" textLength="60" x="194" y="368.5669">container</text></g><!--MD5=[96d11a2f161b103c40ae890db444bcfc]
link Category to Commodity--><g id="link_Category_Commodity"><path codeLine="79" d="M391.31,375.5 C415.68,375.5 443.98,375.5 470.51,375.5 " fill="none" id="Category-Commodity" style="stroke:#181818;stroke-width:1.0;"/><line style="stroke:#181818;stroke-width:1.0;" x1="470.68" x2="478.68" y1="375.5" y2="369.5"/><line style="stroke:#181818;stroke-width:1.0;" x1="470.68" x2="478.68" y1="375.5" y2="381.5"/><line style="stroke:#181818;stroke-width:1.0;" x1="470.68" x2="478.68" y1="375.5" y2="375.5"/><ellipse cx="464.68" cy="375.5" fill="none" rx="4" ry="4" style="stroke:#181818;stroke-width:1.0;"/><line style="stroke:#181818;stroke-width:1.0;" x1="387.13" x2="387.13" y1="379.5" y2="371.5"/><line style="stroke:#181818;stroke-width:1.0;" x1="390.13" x2="390.13" y1="379.5" y2="371.5"/><line style="stroke:#181818;stroke-width:1.0;" x1="391.13" x2="383.13" y1="375.5" y2="375.5"/><text fill="#000000" font-family="sans-serif" font-size="13" lengthAdjust="spacing" textLength="60" x="401" y="368.5669">container</text></g><!--MD5=[9b37b40daa62259f56359c9d5124ef8f]
link Commodity to Specification--><g id="link_Commodity_Specification"><path codeLine="80" d="M656.42,375.5 C683.05,375.5 711.59,375.5 736.43,375.5 " fill="none" id="Commodity-Specification" style="stroke:#181818;stroke-width:1.0;"/><line style="stroke:#181818;stroke-width:1.0;" x1="736.7" x2="744.7" y1="375.5" y2="369.5"/><line style="stroke:#181818;stroke-width:1.0;" x1="736.7" x2="744.7" y1="375.5" y2="381.5"/><line style="stroke:#181818;stroke-width:1.0;" x1="736.7" x2="744.7" y1="375.5" y2="375.5"/><ellipse cx="730.7" cy="375.5" fill="none" rx="4" ry="4" style="stroke:#181818;stroke-width:1.0;"/><line style="stroke:#181818;stroke-width:1.0;" x1="652.13" x2="652.13" y1="379.5" y2="371.5"/><line style="stroke:#181818;stroke-width:1.0;" x1="655.13" x2="655.13" y1="379.5" y2="371.5"/><line style="stroke:#181818;stroke-width:1.0;" x1="656.13" x2="648.13" y1="375.5" y2="375.5"/><text fill="#000000" font-family="sans-serif" font-size="13" lengthAdjust="spacing" textLength="60" x="666.5" y="368.5669">container</text></g><!--MD5=[96611453ff386d06da7b29120a6ccea2]
link Specification to SpecificationAtb--><g id="link_Specification_SpecificationAtb"><path codeLine="81" d="M872.22,375.5 C897.24,375.5 925.82,375.5 951.81,375.5 " fill="none" id="Specification-SpecificationAtb" style="stroke:#181818;stroke-width:1.0;"/><line style="stroke:#181818;stroke-width:1.0;" x1="952.14" x2="960.14" y1="375.5" y2="369.5"/><line style="stroke:#181818;stroke-width:1.0;" x1="952.14" x2="960.14" y1="375.5" y2="381.5"/><line style="stroke:#181818;stroke-width:1.0;" x1="952.14" x2="960.14" y1="375.5" y2="375.5"/><ellipse cx="946.14" cy="375.5" fill="none" rx="4" ry="4" style="stroke:#181818;stroke-width:1.0;"/><line style="stroke:#181818;stroke-width:1.0;" x1="868.14" x2="868.14" y1="379.5" y2="371.5"/><line style="stroke:#181818;stroke-width:1.0;" x1="871.14" x2="871.14" y1="379.5" y2="371.5"/><line style="stroke:#181818;stroke-width:1.0;" x1="872.14" x2="864.14" y1="375.5" y2="375.5"/><text fill="#000000" font-family="sans-serif" font-size="13" lengthAdjust="spacing" textLength="60" x="882.25" y="368.5669">container</text></g><!--MD5=[06a6064c5cdd443a62b5eb59fb550c27]
link Order to OrderItem--><g id="link_Order_OrderItem"><path codeLine="82" d="M576.23,96 C604.51,96 636.12,96 666.31,96 " fill="none" id="Order-OrderItem" style="stroke:#181818;stroke-width:1.0;"/><line style="stroke:#181818;stroke-width:1.0;" x1="666.36" x2="674.36" y1="96" y2="90"/><line style="stroke:#181818;stroke-width:1.0;" x1="666.36" x2="674.36" y1="96" y2="102"/><line style="stroke:#181818;stroke-width:1.0;" x1="666.36" x2="674.36" y1="96" y2="96"/><ellipse cx="660.36" cy="96" fill="none" rx="4" ry="4" style="stroke:#181818;stroke-width:1.0;"/><line style="stroke:#181818;stroke-width:1.0;" x1="572.07" x2="572.07" y1="100" y2="92"/><line style="stroke:#181818;stroke-width:1.0;" x1="575.07" x2="575.07" y1="100" y2="92"/><line style="stroke:#181818;stroke-width:1.0;" x1="576.07" x2="568.07" y1="96" y2="96"/><text fill="#000000" font-family="sans-serif" font-size="13" lengthAdjust="spacing" textLength="60" x="591.25" y="89.0669">container</text></g><!--MD5=[0c3377936177ec4aa8e3e072e00824ae]
link OrderItem to Specification--><g id="link_OrderItem_Specification"><path codeLine="83" d="M797.09,168.82 C798.77,215.5 800.93,275.47 802.49,318.59 " fill="none" id="OrderItem-Specification" style="stroke:#181818;stroke-width:1.0;"/><line style="stroke:#181818;stroke-width:1.0;" x1="802.4945" x2="808.7762" y1="318.7151" y2="326.4959"/><line style="stroke:#181818;stroke-width:1.0;" x1="802.4945" x2="796.7838" y1="318.7151" y2="326.9241"/><line style="stroke:#181818;stroke-width:1.0;" x1="802.4945" x2="802.78" y1="318.7151" y2="326.71"/><ellipse cx="802.2803" cy="312.7189" fill="none" rx="4" ry="4" style="stroke:#181818;stroke-width:1.0;"/><line style="stroke:#181818;stroke-width:1.0;" x1="792.9353" x2="800.9302" y1="164.8002" y2="164.5147"/><line style="stroke:#181818;stroke-width:1.0;" x1="793.0424" x2="801.0373" y1="167.7983" y2="167.5128"/><line style="stroke:#181818;stroke-width:1.0;" x1="797.0755" x2="796.79" y1="168.6549" y2="160.66"/><text fill="#000000" font-family="sans-serif" font-size="13" lengthAdjust="spacing" textLength="60" x="799.5" y="228.0669">container</text></g><!--MD5=[ffda3855b0a3ff30c6f08b348d4b8ea6]
@startuml
entity Merchant {
        Long     mid
        String   desc
        geometry geom
        String   geom_desc
        String   Integerro_img
        String   name
        Long     owner
        String   phone
        float    score
        DateTime create_time
        DateTime update_time
    }
    entity User {
    user_id Long
    dept_id Long
    user_name String
    user_type enum
    email String
    phonenumber String
    avatar String
    password String
    }

    entity Category {
    Long    cat_id
    Long    mid
    String  name
    Integer priority
    }

    entity Commodity {
    Long     cid
    varcha   name
    Long     cat_id
    varcha   img
    varcha   desc
    Long     mid
    DateTime create_time
    DateTime update_time
    enum     type
    }

    entity Order {
    Long     oid
    Long     uid
    Long     mid
    Integer  total_amount
    Enum     status
    DateTime create_time
    DateTime update_time
    }

    entity OrderItem {
    Long     oiid
    Long     oid
    Long     sid
    Integer  count
    DateTime appoIntegerment_time
    }


    entity Specification {
    Long    sid
    Long    cid
    Integer price
    }

    entity SpecificationAtb{
    Long   aid
    varcha key
    varcha value
    Long   sid
    }

    User ||-down-o{ Merchant : container
    User ||-right-o{ Order : container
    Merchant ||-right-o{ Category : container
    Category ||-right-o{ Commodity : container
    Commodity ||-right-o{ Specification : container
    Specification ||-right-o{ SpecificationAtb : container
    Order ||-right-o{ OrderItem : container
    OrderItem ||- -o{ Specification : container
@enduml

PlantUML version 1.2022.4(Sat Apr 09 13:29:17 UTC 2022)
(GPL source distribution)
Java Runtime: OpenJDK Runtime Environment
JVM: OpenJDK 64-Bit Server VM
Default Encoding: UTF-8
Language: en
Country: null
--></g></svg>